# xmcd
# 
# Track frame offsets:
#     150
#     14015
#     28350
#     45305
#     63298
#     82320
#     99078
#     114815
#     135374
#     150593
#     166632
#     176292
#     199240
#     218331
#     235880
#     247504
#     256510
#     276248
#     294693
#     315854
# 
# Disc length: 4437
# 
# Revision: 1
# Processed by: cddbd v1.5.2PL0 Copyright (c) Steve Scherf et al.
# Submitted via: BonkEnc v1.0.8
# 
DISCID=f3115314
DTITLE=Patrick Verbeke - Monsieur Blues!
DYEAR=1999
DGENRE=Blues
TTITLE0=Monsieur Blues
TTITLE1=De quoi j'vais m'plaindre
TTITLE2=Beale Street en mai
TTITLE3=Conduite en état d'amour
TTITLE4=Carte Blues
TTITLE5=Entre deux eaux
TTITLE6=eh Bill
TTITLE7=Delta Queen
TTITLE8=Funky Français
TTITLE9=A la dérive
TTITLE10=Mon p'tit monde
TTITLE11=Emily
TTITLE12=Laisse parler ton coeur
TTITLE13=Bluesy Lady
TTITLE14=Open moi
TTITLE15=J'ai une idée
TTITLE16=Si t'as mal
TTITLE17=Never been to Mississipi
TTITLE18=St James infirmary
TTITLE19=L'escalier d'ma môme
EXTD=
EXTT0=
EXTT1=
EXTT2=
EXTT3=
EXTT4=
EXTT5=
EXTT6=
EXTT7=
EXTT8=
EXTT9=
EXTT10=
EXTT11=
EXTT12=
EXTT13=
EXTT14=
EXTT15=
EXTT16=
EXTT17=
EXTT18=
EXTT19=
PLAYORDER=
